<!DOCTYPE svg PUBLIC "-//W3C//DTD SVG 20010904//EN" "http://www.w3.org/TR/2001/REC-SVG-20010904/DTD/svg10.dtd">
<svg version="1.0" xmlns="http://www.w3.org/2000/svg" width="1200px" height="858px" viewBox="0 0 12000 8580" preserveAspectRatio="xMidYMid meet">
<g id="layer101" fill="#282828" stroke="none">
<path d="M0 4290 l0 -4290 6000 0 6000 0 0 4290 0 4290 -6000 0 -6000 0 0 -4290z"/>
</g>
<g id="layer102" fill="#008fff" stroke="none">
<path d="M0 4290 l0 -4290 6000 0 6000 0 0 4290 0 4290 -6000 0 -6000 0 0 -4290z m5829 2449 c162 -27 225 -109 172 -224 -39 -84 -94 -106 -176 -70 -24 10 -78 19 -135 22 -84 5 -102 3 -148 -17 -54 -24 -82 -51 -82 -82 0 -17 16 -18 235 -18 215 0 239 -2 275 -20 73 -37 107 -121 97 -236 -22 -233 -248 -383 -521 -344 -147 21 -291 109 -363 224 -60 94 -87 255 -64 378 15 75 67 188 112 242 41 48 134 109 201 132 91 30 265 36 397 13z m1080 -5 c152 -34 200 -115 136 -233 -42 -77 -75 -85 -205 -47 -70 21 -189 21 -238 0 -46 -19 -92 -62 -92 -85 0 -17 19 -18 248 -21 l249 -3 37 -29 c58 -44 79 -101 74 -200 -4 -99 -35 -172 -102 -244 -161 -172 -500 -172 -692 1 -65 59 -101 111 -129 189 -62 172 -32 365 80 518 67 91 193 156 330 169 95 9 227 2 304 -15z m2371 6 c190 -30 276 -102 299 -250 15 -89 -1 -176 -43 -238 -42 -64 -127 -105 -282 -137 -118 -25 -154 -43 -154 -77 0 -42 127 -51 220 -17 92 35 121 35 154 2 65 -65 85 -152 44 -190 -13 -12 -57 -33 -98 -48 -62 -23 -97 -29 -195 -33 -245 -9 -377 64 -407 225 -13 72 0 171 32 232 43 85 156 152 307 182 103 21 133 33 133 53 0 28 -32 41 -104 40 -63 0 -81 -5 -155 -42 -132 -65 -167 -56 -226 61 -45 91 -33 123 63 171 136 68 264 89 412 66z m-4656 -31 c26 -18 83 -106 246 -386 116 -199 214 -377 217 -396 8 -49 -18 -91 -82 -134 -39 -25 -70 -37 -105 -41 -47 -4 -52 -2 -83 31 -17 19 -88 143 -157 276 -68 132 -128 237 -133 232 -4 -4 -63 -115 -131 -245 -67 -130 -134 -250 -148 -267 -21 -23 -34 -29 -67 -29 -73 0 -187 76 -205 136 -4 12 -1 39 7 60 12 35 373 661 419 727 48 68 151 85 222 36z m2886 3 c51 -25 58 -66 59 -320 1 -273 12 -302 109 -302 50 0 88 29 102 78 5 20 10 133 10 250 0 247 6 273 67 299 28 11 59 14 117 11 74 -5 81 -7 108 -37 l28 -31 0 -209 c0 -309 16 -361 110 -361 52 0 86 19 103 59 7 16 13 122 17 273 l5 248 27 26 c23 24 37 28 105 32 102 6 147 -12 169 -65 22 -52 15 -550 -9 -630 -25 -85 -55 -139 -103 -183 -68 -62 -124 -85 -214 -85 -65 0 -83 4 -130 30 -30 17 -75 50 -100 76 l-45 45 -37 -47 c-44 -56 -119 -96 -199 -105 -80 -9 -144 14 -203 74 -25 25 -46 40 -46 33 0 -31 -33 -80 -63 -93 -47 -20 -168 -16 -201 6 -54 35 -56 52 -56 466 0 425 2 439 62 465 47 20 165 19 208 -3z"/>
</g>
<g id="layer103" fill="#ffffff" stroke="none">
<path d="M0 4290 l0 -4290 6000 0 6000 0 0 4290 0 4290 -6000 0 -6000 0 0 -4290z m3005 2750 c262 -38 489 -204 608 -444 196 -397 33 -873 -368 -1074 -122 -61 -196 -77 -350 -77 -102 0 -158 5 -205 18 -293 79 -516 311 -585 607 -22 95 -20 269 5 366 101 400 489 662 895 604z m2824 -301 c162 -27 225 -109 172 -224 -39 -84 -94 -106 -176 -70 -24 10 -78 19 -135 22 -84 5 -102 3 -148 -17 -54 -24 -82 -51 -82 -82 0 -17 16 -18 235 -18 215 0 239 -2 275 -20 73 -37 107 -121 97 -236 -22 -233 -248 -383 -521 -344 -147 21 -291 109 -363 224 -60 94 -87 255 -64 378 15 75 67 188 112 242 41 48 134 109 201 132 91 30 265 36 397 13z m1080 -5 c152 -34 200 -115 136 -233 -42 -77 -75 -85 -205 -47 -70 21 -189 21 -238 0 -46 -19 -92 -62 -92 -85 0 -17 19 -18 248 -21 l249 -3 37 -29 c58 -44 79 -101 74 -200 -4 -99 -35 -172 -102 -244 -161 -172 -500 -172 -692 1 -65 59 -101 111 -129 189 -62 172 -32 365 80 518 67 91 193 156 330 169 95 9 227 2 304 -15z m2371 6 c190 -30 276 -102 299 -250 15 -89 -1 -176 -43 -238 -42 -64 -127 -105 -282 -137 -118 -25 -154 -43 -154 -77 0 -42 127 -51 220 -17 92 35 121 35 154 2 65 -65 85 -152 44 -190 -13 -12 -57 -33 -98 -48 -62 -23 -97 -29 -195 -33 -245 -9 -377 64 -407 225 -13 72 0 171 32 232 43 85 156 152 307 182 103 21 133 33 133 53 0 28 -32 41 -104 40 -63 0 -81 -5 -155 -42 -132 -65 -167 -56 -226 61 -45 91 -33 123 63 171 136 68 264 89 412 66z m-4656 -31 c26 -18 83 -106 246 -386 116 -199 214 -377 217 -396 8 -49 -18 -91 -82 -134 -39 -25 -70 -37 -105 -41 -47 -4 -52 -2 -83 31 -17 19 -88 143 -157 276 -68 132 -128 237 -133 232 -4 -4 -63 -115 -131 -245 -67 -130 -134 -250 -148 -267 -21 -23 -34 -29 -67 -29 -73 0 -187 76 -205 136 -4 12 -1 39 7 60 12 35 373 661 419 727 48 68 151 85 222 36z m2886 3 c51 -25 58 -66 59 -320 1 -273 12 -302 109 -302 50 0 88 29 102 78 5 20 10 133 10 250 0 247 6 273 67 299 28 11 59 14 117 11 74 -5 81 -7 108 -37 l28 -31 0 -209 c0 -309 16 -361 110 -361 52 0 86 19 103 59 7 16 13 122 17 273 l5 248 27 26 c23 24 37 28 105 32 102 6 147 -12 169 -65 22 -52 15 -550 -9 -630 -25 -85 -55 -139 -103 -183 -68 -62 -124 -85 -214 -85 -65 0 -83 4 -130 30 -30 17 -75 50 -100 76 l-45 45 -37 -47 c-44 -56 -119 -96 -199 -105 -80 -9 -144 14 -203 74 -25 25 -46 40 -46 33 0 -31 -33 -80 -63 -93 -47 -20 -168 -16 -201 6 -54 35 -56 52 -56 466 0 425 2 439 62 465 47 20 165 19 208 -3z m-4415 -3437 c156 -42 325 -153 425 -278 115 -144 172 -310 172 -502 0 -192 -57 -358 -172 -502 -102 -128 -273 -239 -429 -278 -431 -110 -872 156 -981 589 -27 108 -27 274 0 382 77 305 317 535 627 599 85 18 275 13 358 -10z m2670 -275 c118 -14 179 -34 221 -76 28 -28 34 -42 34 -76 0 -50 -32 -120 -67 -148 -33 -25 -68 -25 -146 1 -79 27 -206 30 -259 6 -48 -20 -88 -60 -88 -87 0 -20 5 -20 243 -20 l244 0 40 -29 c59 -43 78 -89 78 -191 0 -72 -4 -94 -27 -143 -77 -163 -206 -238 -408 -238 -159 0 -263 39 -369 137 -194 179 -202 516 -18 720 54 60 156 117 237 133 30 6 64 13 75 15 39 7 121 6 210 -4z m1152 -16 c108 -28 156 -72 155 -142 -1 -46 -22 -94 -60 -134 -31 -34 -63 -35 -152 -7 -94 30 -211 30 -270 0 -50 -25 -79 -57 -80 -83 0 -17 18 -18 240 -18 264 0 275 -2 324 -60 36 -43 49 -96 44 -181 -11 -216 -184 -360 -433 -360 -161 -1 -277 44 -379 144 -103 102 -155 245 -142 394 23 257 174 425 420 464 71 11 263 1 333 -17z m2400 0 c166 -34 237 -99 263 -242 15 -83 -1 -170 -43 -236 -41 -64 -130 -108 -286 -140 -117 -24 -160 -48 -148 -80 16 -42 120 -47 222 -11 113 40 138 34 185 -48 47 -83 39 -132 -29 -167 -159 -81 -432 -80 -556 2 -91 60 -130 168 -106 294 22 120 68 182 174 233 58 29 134 51 219 65 20 4 47 15 60 26 22 18 22 19 5 37 -14 14 -33 18 -90 18 -65 0 -81 -4 -157 -42 -132 -66 -166 -57 -225 60 -41 83 -32 120 38 162 133 77 310 103 474 69z m-4706 -16 c47 -26 28 3 261 -396 201 -344 218 -377 218 -415 0 -62 -122 -157 -202 -157 -59 0 -90 42 -227 309 -68 132 -127 238 -132 236 -4 -3 -63 -112 -130 -241 -139 -269 -163 -304 -218 -304 -74 0 -191 81 -207 144 -3 13 1 39 10 59 22 53 404 708 430 736 47 53 132 66 197 29z m2899 -3 c51 -27 54 -41 60 -313 l5 -254 33 -29 c61 -55 150 -30 172 49 5 20 10 136 10 257 0 202 2 223 20 253 11 18 32 37 46 42 34 13 154 13 193 -1 55 -19 61 -44 61 -272 0 -112 4 -229 10 -258 13 -68 44 -99 101 -99 51 0 74 13 96 53 15 27 19 69 23 279 l5 248 28 27 c25 26 35 28 115 31 165 5 172 -9 172 -328 0 -301 -12 -379 -72 -480 -84 -139 -256 -194 -391 -125 -32 15 -78 50 -104 76 l-46 47 -29 -35 c-44 -55 -99 -91 -168 -109 -101 -26 -169 -7 -246 68 l-42 40 -7 -31 c-3 -17 -20 -42 -37 -56 -26 -22 -38 -25 -111 -25 -96 0 -126 12 -149 60 -16 32 -18 73 -18 420 0 347 2 388 18 420 9 19 28 40 42 47 36 18 174 17 210 -2z"/>
<path d="M2669 6551 c-44 -47 -57 -92 -36 -124 8 -12 88 -60 177 -106 l162 -83 -159 -83 c-87 -46 -166 -94 -177 -109 -18 -24 -18 -27 -2 -70 19 -50 57 -86 90 -86 34 0 468 252 497 288 24 31 25 89 1 119 -25 32 -474 293 -503 293 -7 0 -29 -18 -50 -39z"/>
<path d="M5454 6164 c10 -41 85 -110 135 -124 84 -22 161 17 161 83 0 55 -16 62 -168 66 l-135 3 7 -28z"/>
<path d="M6507 6183 c-21 -33 81 -135 147 -147 78 -15 149 28 149 90 0 50 -22 59 -162 62 -73 2 -131 0 -134 -5z"/>
<path d="M2672 2810 c-39 -38 -59 -98 -44 -127 6 -11 83 -58 172 -103 88 -46 160 -87 160 -91 0 -4 -67 -41 -148 -83 -82 -42 -159 -87 -172 -101 -21 -23 -22 -28 -11 -64 14 -50 62 -101 93 -101 29 0 464 251 496 286 15 17 22 38 22 64 0 26 -7 47 -22 63 -29 31 -449 276 -487 283 -22 5 -34 -1 -59 -26z"/>
<path d="M5450 2428 c0 -25 40 -78 81 -108 86 -62 219 -29 219 55 0 56 -24 65 -172 65 -96 0 -128 -3 -128 -12z"/>
<path d="M6510 2408 c20 -68 97 -118 183 -118 44 0 59 5 81 25 37 34 39 78 4 108 -17 14 -41 17 -148 17 l-129 0 9 -32z"/>
</g>


</svg>