<!DOCTYPE svg PUBLIC "-//W3C//DTD SVG 20010904//EN" "http://www.w3.org/TR/2001/REC-SVG-20010904/DTD/svg10.dtd">
<svg version="1.0" xmlns="http://www.w3.org/2000/svg" width="1200px" height="858px" viewBox="0 0 12000 8580" preserveAspectRatio="xMidYMid meet">
<g id="layer101" fill="#282828" stroke="none">
<path d="M5480 2990 c-169 -36 -303 -172 -350 -356 -24 -91 -25 -164 -5 -257 19 -91 58 -160 130 -232 100 -99 219 -145 375 -145 194 0 328 76 403 229 28 57 32 76 32 146 0 94 -20 142 -79 189 l-38 31 -249 3 -250 3 7 22 c9 32 33 56 79 80 56 30 194 29 280 -2 32 -11 72 -21 88 -21 37 0 78 41 101 102 35 90 -2 153 -111 190 -45 15 -92 21 -213 23 -85 2 -175 0 -200 -5z m260 -570 c19 -30 11 -80 -16 -105 -28 -26 -98 -41 -136 -30 -67 22 -138 92 -138 138 0 17 10 18 140 15 112 -2 143 -6 150 -18z"/>
<path d="M6529 2986 c-111 -24 -208 -88 -269 -179 -178 -264 -99 -616 169 -750 94 -47 164 -60 286 -55 162 8 271 64 345 178 46 73 64 142 58 224 -7 76 -35 133 -84 166 -37 25 -40 25 -281 28 -237 3 -243 3 -243 23 0 32 56 77 118 95 66 19 155 13 243 -16 32 -11 69 -20 82 -20 54 0 116 85 117 158 0 109 -127 163 -380 161 -58 0 -130 -6 -161 -13z m262 -567 c16 -16 20 -28 15 -52 -8 -39 -23 -57 -63 -74 -50 -20 -93 -16 -149 16 -53 31 -79 61 -90 105 l-6 26 136 0 c125 0 138 -2 157 -21z"/>
<path d="M4458 2970 c-20 -11 -45 -32 -56 -47 -10 -16 -110 -184 -220 -374 -174 -297 -202 -351 -202 -386 0 -55 36 -97 115 -134 110 -52 138 -38 218 114 71 134 169 321 197 376 l22 44 60 -114 c32 -63 91 -175 129 -249 39 -74 76 -142 82 -150 21 -27 61 -50 87 -50 64 0 200 101 200 149 0 35 -32 96 -233 440 -183 313 -205 347 -246 373 -53 33 -100 36 -153 8z"/>
<path d="M8980 2971 c-30 -10 -83 -32 -117 -49 -93 -48 -102 -76 -53 -171 57 -113 88 -120 232 -50 68 32 92 39 143 39 63 0 105 -18 105 -45 0 -21 -26 -32 -133 -54 -237 -50 -341 -157 -340 -352 1 -123 46 -198 148 -245 117 -53 298 -57 442 -9 138 46 159 84 103 182 -51 90 -77 97 -192 54 -67 -24 -174 -28 -203 -8 -24 19 -14 60 20 75 14 6 70 21 125 32 235 48 320 128 320 302 0 166 -67 254 -229 302 -77 23 -295 21 -371 -3z"/>
<path d="M7310 2968 c-65 -24 -65 -27 -65 -473 0 -307 3 -405 13 -422 23 -41 67 -55 157 -51 95 4 119 17 135 79 l11 38 37 -41 c50 -56 108 -80 189 -79 88 1 151 30 212 97 l48 53 44 -45 c24 -25 72 -59 105 -75 116 -57 249 -34 343 60 97 97 115 178 116 516 0 338 -1 341 -134 352 -81 7 -135 -8 -159 -45 -14 -22 -18 -62 -22 -273 -5 -231 -6 -249 -26 -276 -29 -38 -86 -57 -131 -42 -64 21 -67 35 -73 314 -5 260 -9 283 -51 305 -34 19 -150 23 -194 8 -69 -23 -75 -46 -75 -306 0 -244 -6 -276 -56 -309 -39 -25 -100 -22 -130 8 -35 35 -44 105 -44 330 0 109 -4 209 -10 223 -5 14 -21 33 -35 42 -34 22 -157 29 -205 12z"/>
</g>
<g id="layer102" fill="#2b7fd6" stroke="none">
<path d="M2795 7039 c-291 -37 -540 -228 -650 -497 -61 -151 -72 -377 -25 -527 82 -262 275 -455 540 -541 76 -24 100 -27 225 -28 162 -1 219 12 360 79 143 69 249 167 334 307 78 130 111 251 111 409 0 210 -74 396 -219 552 -95 101 -228 182 -362 220 -46 13 -223 40 -239 36 -3 -1 -36 -5 -75 -10z"/>
<path d="M5495 6740 c-124 -26 -217 -85 -286 -183 -148 -211 -125 -507 52 -671 106 -98 218 -139 374 -138 195 1 330 81 401 235 63 140 30 293 -76 347 -36 18 -59 20 -275 20 l-236 0 7 23 c10 34 35 58 84 81 60 27 179 26 270 -3 81 -26 111 -26 142 -1 31 24 68 100 68 138 0 39 -37 91 -81 114 -79 41 -326 62 -444 38z m233 -566 c24 -17 30 -61 11 -96 -14 -26 -68 -48 -117 -48 -68 0 -172 82 -172 136 0 24 0 24 128 24 99 0 132 -3 150 -16z"/>
<path d="M6526 6734 c-219 -53 -359 -244 -359 -489 0 -100 20 -184 60 -254 101 -174 307 -267 531 -239 200 24 347 165 359 346 6 84 -9 142 -50 189 -52 60 -70 63 -327 63 -202 0 -230 2 -230 16 0 30 22 54 73 81 44 22 64 26 132 26 51 -1 104 -9 145 -22 36 -11 77 -21 91 -21 56 0 118 84 119 162 0 44 -33 88 -85 112 -91 44 -337 60 -459 30z m260 -570 c63 -62 -31 -150 -140 -130 -66 13 -146 92 -146 146 0 6 47 10 130 10 127 0 132 -1 156 -26z"/>
<path d="M4495 6730 c-72 -16 -64 -6 -336 -470 -198 -339 -205 -360 -150 -423 40 -45 123 -87 172 -87 54 0 77 31 219 308 69 133 128 242 132 242 3 0 64 -111 134 -247 71 -137 141 -260 157 -275 36 -35 81 -37 140 -7 82 42 127 89 127 133 0 19 -31 87 -72 157 -350 600 -364 622 -398 644 -41 26 -83 35 -125 25z"/>
<path d="M9000 6724 c-76 -20 -198 -81 -211 -106 -6 -11 -9 -36 -6 -55 8 -45 73 -150 98 -158 33 -11 85 3 160 43 54 28 84 37 132 39 70 4 112 -12 112 -42 0 -22 -56 -45 -160 -64 -33 -6 -92 -27 -132 -46 -125 -61 -175 -146 -176 -295 -1 -64 4 -87 26 -133 52 -105 139 -147 322 -155 102 -4 132 -1 198 17 152 41 191 76 169 149 -16 54 -67 120 -97 128 -16 4 -51 -3 -95 -19 -95 -36 -157 -43 -203 -24 -24 11 -37 23 -37 35 0 35 37 55 153 78 76 16 136 35 187 61 70 36 77 42 107 101 29 56 33 73 33 142 0 224 -128 321 -420 319 -58 0 -130 -7 -160 -15z"/>
<path d="M7313 6719 c-21 -6 -39 -22 -50 -42 -16 -29 -18 -69 -18 -432 0 -369 1 -403 18 -428 25 -38 59 -49 146 -49 87 0 118 17 140 79 l14 40 36 -40 c40 -45 121 -87 166 -87 93 0 207 56 254 125 l24 35 56 -53 c127 -121 266 -137 398 -45 131 89 168 231 161 615 -3 196 -5 214 -24 240 -53 71 -231 72 -274 0 -18 -29 -20 -52 -20 -252 0 -237 -6 -278 -45 -315 -34 -32 -116 -34 -146 -3 -32 32 -39 83 -39 313 0 252 -6 276 -75 297 -52 15 -131 15 -175 0 -64 -22 -70 -49 -70 -310 0 -241 -3 -259 -49 -301 -33 -30 -105 -26 -138 7 -35 35 -42 84 -42 324 -1 111 -5 213 -11 227 -5 14 -20 32 -34 41 -30 20 -157 29 -203 14z"/>
<path d="M2783 3289 c-225 -27 -433 -158 -563 -356 -174 -264 -174 -612 0 -876 203 -309 585 -439 935 -319 321 111 535 412 535 752 0 232 -84 427 -252 585 -179 168 -410 244 -655 214z"/>
</g>
<g id="layer103" fill="#f4f8fd" stroke="none">
<path d="M2677 6561 c-44 -39 -66 -102 -46 -131 13 -20 87 -63 263 -152 l79 -40 -159 -83 c-88 -46 -167 -94 -178 -109 -18 -24 -18 -27 -2 -70 19 -50 57 -86 90 -86 34 0 468 252 497 288 24 31 25 89 1 119 -9 12 -69 52 -132 89 -63 37 -151 88 -195 114 -96 56 -160 90 -174 90 -6 0 -25 -13 -44 -29z"/>
<path d="M2671 2808 c-39 -39 -58 -96 -43 -125 6 -11 83 -58 172 -104 88 -46 160 -86 160 -90 0 -4 -71 -44 -159 -89 -175 -90 -191 -105 -171 -164 15 -47 62 -96 92 -96 29 0 465 252 496 286 26 29 30 89 7 120 -18 27 -475 294 -502 294 -12 0 -35 -14 -52 -32z"/>
</g>


</svg>